{"title":"Star Wars Episode IV 1977 MULTI 1080p mHD Blu-ray x264 AC3 5.1 M","uid":15886399,"size":5430927511,"categoryP":"video","categoryS":"hd___movies","magnet":"?xt=urn:btih:e21ad1217b8c34b0c51bb75c4d057ab54592df6c&amp;dn=Star+Wars+Episode+IV+1977+MULTI+1080p+mHD+Blu-ray+x264+AC3+5.1+M&amp;tr=udp%3A%2F%2Ftracker.leechers-paradise.org%3A6969&amp;tr=udp%3A%2F%2Fzer0day.ch%3A1337&amp;tr=udp%3A%2F%2Fopen.demonii.com%3A1337&amp;tr=udp%3A%2F%2Ftracker.coppersurfer.tk%3A6969&amp;tr=udp%3A%2F%2Fexodus.desync.com%3A6969","seeders":10,"leechers":33,"uploader":"SaM","files":3,"time":1474662062,"description":"1080p Blu-ray Rip x264\r\n\r\nEnglish DD AC3 5.1 Audio\r\nHindi DD AC3 2.0 Audio\r\n\r\nEnglish &amp; French Subtitles\r\n+\r\nSDH subs\r\n \nhttps://extraimago.com/image/w9nf \nhttps://extraimago.com/image/w9nW \nhttps://extraimago.com/image/w9nA \nhttps://extraimago.com/image/w9nv \nhttps://extraimago.com/image/w9nu \nhttps://extraimago.com/image/w9nV \nhttps://extraimago.com/image/w9n6 \nhttps://extraimago.com/image/w9nx \nhttps://extraimago.com/image/w9nt \nhttps://extraimago.com/image/w9no \nhttps://extraimago.com/image/w9nk \nhttps://extraimago.com/image/w9nH \nhttps://extraimago.com/image/w9nF \nhttps://extraimago.com/image/w9nD \nhttps://extraimago.com/image/w9n5 \nhttps://extraimago.com/image/w9ng\r\n\r\nSpecs:\r\nSource: French Digitally Remastered 10 Disc Set @ DDR\r\n\r\nFormat : Matroska\r\nFile size : 4.99 GiB\r\nDuration : 2 h 4 min\r\nOverall bit rate : 5 724 kb/s\r\nEncoded date : UTC 2016-09-23 15:27:17\r\nWriting application : mkvmerge v9.4.2 ('So High') 64bit\r\nWriting library : libebml v1.3.4 + libmatroska v1.4.5\r\n\r\nVideo\r\nID : 1\r\nFormat : AVC\r\nFormat/Info : Advanced Video Codec\r\nFormat profile :   \r\nFormat settings, CABAC : Yes\r\nFormat settings, ReFrames : 5 frames\r\nCodec ID : V_MPEG4/ISO/AVC\r\nDuration : 2 h 4 min\r\nBit rate : 5 000 kb/s\r\nWidth : 1 920 pixels\r\nHeight : 816 pixels\r\nDisplay aspect ratio : 2.35:1\r\nFrame rate mode : Constant\r\nFrame rate : 23.976 (24000/1001) FPS\r\nColor space : YUV\r\nChroma subsampling : 4:2:0\r\nBit depth : 8 bits\r\n\r\nAudio #1\r\nID : 2\r\nFormat : AC-3\r\nFormat/Info : Audio Coding 3\r\nMode extension : CM (complete main)\r\nFormat settings, Endianness : Big\r\nCodec ID : A_AC3\r\nDuration : 2 h 4 min\r\nBit rate mode : Constant\r\nBit rate : 448 kb/s\r\nChannel(s) : 6 channels\r\nChannel positions : Front: L C R, Side: L R, LFE\r\nSampling rate : 48.0 kHz\r\nFrame rate : 31.250 FPS (1536 spf)\r\nCompression mode : Lossy\r\nStream size : 400 MiB (8%)\r\nLanguage : English\r\nDefault : Yes\r\nForced : No\r\n\r\nAudio #2\r\nID : 3\r\nFormat : AC-3\r\nFormat/Info : Audio Coding 3\r\nMode extension : CM (complete main)\r\nFormat settings, Endianness : Big\r\nCodec ID : A_AC3\r\nDuration : 2 h 4 min\r\nBit rate mode : Constant\r\nBit rate : 192 kb/s\r\nChannel(s) : 2 channels\r\nChannel positions : Front: L R\r\nSampling rate : 48.0 kHz\r\nFrame rate : 31.250 FPS (1536 spf)\r\nCompression mode : Lossy\r\nStream size : 171 MiB (3%)\r\nLanguage : Hindi\r\nDefault : No\r\nForced : No","torrent":{"xt":"urn:btih:e21ad1217b8c34b0c51bb75c4d057ab54592df6c","amp;dn":"Star+Wars+Episode+IV+1977+MULTI+1080p+mHD+Blu-ray+x264+AC3+5.1+M","amp;tr":["udp%3A%2F%2Ftracker.leechers-paradise.org%3A6969","udp%3A%2F%2Fzer0day.ch%3A1337","udp%3A%2F%2Fopen.demonii.com%3A1337","udp%3A%2F%2Ftracker.coppersurfer.tk%3A6969","udp%3A%2F%2Fexodus.desync.com%3A6969"],"infoHash":"e21ad1217b8c34b0c51bb75c4d057ab54592df6c","infoHashBuffer":{"type":"Buffer","data":[226,26,209,33,123,140,52,176,197,27,183,92,77,5,122,181,69,146,223,108]},"announce":[],"urlList":[]}}